<svg xmlns="http://www.w3.org/2000/svg" xmlns:xlink="http://www.w3.org/1999/xlink" width="500" zoomAndPan="magnify" viewBox="0 0 375 44.999999" height="60" preserveAspectRatio="xMidYMid meet" version="1.0"><defs><g/></defs><g fill="#ffffff" fill-opacity="1"><g transform="translate(0.480093, 41.951132)"><g><path d="M 50.234375 -0.40625 C 48.359375 -0.40625 46.59375 -2.90625 45.046875 -5.640625 L 32.640625 -27.390625 L 33.3125 -28.015625 C 37.53125 -32.0625 43.6875 -38.265625 47.5 -38.78125 L 47.5 -39.1875 L 28.59375 -39.1875 L 28.59375 -38.78125 C 33.765625 -38.671875 35.421875 -30.578125 31.84375 -27.171875 L 20.453125 -16.234375 L 20.453125 -32.296875 C 20.453125 -37.640625 21.46875 -38.78125 24.546875 -38.78125 L 25.453125 -38.78125 L 25.453125 -39.1875 L 1.828125 -39.1875 L 1.828125 -38.78125 L 2.734375 -38.78125 C 6.65625 -38.78125 7.96875 -37.640625 7.96875 -32.296875 L 7.96875 -6.890625 C 7.96875 -1.53125 6.65625 -0.40625 2.734375 -0.40625 L 1.828125 -0.40625 L 1.828125 0 L 25.453125 0 L 25.453125 -0.40625 L 24.546875 -0.40625 C 21.46875 -0.40625 20.453125 -1.53125 20.453125 -6.890625 L 20.453125 -15.65625 L 23.234375 -18.34375 L 30.234375 -6.609375 C 32.40625 -2.96875 30.078125 -0.40625 27.671875 -0.40625 L 27.671875 0 L 50.796875 0 L 50.796875 -0.40625 Z M 50.234375 -0.40625 "/></g></g></g><g fill="#ffffff" fill-opacity="1"><g transform="translate(51.331363, 41.951132)"><g><path d="M 9.515625 0.90625 C 12.875 0.90625 15.546875 -1.828125 15.546875 -5.125 C 15.546875 -8.484375 12.875 -11.15625 9.515625 -11.15625 C 6.15625 -11.15625 3.421875 -8.484375 3.421875 -5.125 C 3.421875 -1.828125 6.15625 0.90625 9.515625 0.90625 Z M 9.515625 0.90625 "/></g></g></g><g fill="#ffffff" fill-opacity="1"><g transform="translate(70.293815, 41.951132)"><g><path d="M 28.359375 -5.75 C 28.359375 -2 25.34375 0.40625 19.703125 0.40625 C 13.671875 0.40625 9.171875 -3.875 5.015625 -16.234375 L 4.671875 -16.234375 L 3.640625 0.28125 L 3.984375 0.28125 C 4.328125 -0.90625 5.234375 -1.078125 6.15625 -1.078125 C 8.71875 -1.078125 13.328125 0.90625 19.65625 0.90625 C 30.078125 0.90625 36.046875 -3.9375 36.046875 -11.28125 C 36.046875 -19.1875 30.984375 -22.265625 23.859375 -24.65625 C 14.8125 -27.046875 11.453125 -29.4375 11.453125 -34.109375 C 11.453125 -37.59375 13.671875 -39.578125 18.796875 -39.578125 C 25.109375 -39.578125 28.703125 -35.65625 32.640625 -24.265625 L 32.96875 -24.265625 L 34.0625 -39.46875 L 33.71875 -39.46875 C 33.375 -38.21875 32.234375 -38.046875 31.328125 -38.046875 C 28.640625 -38.046875 24.4375 -40.09375 18.796875 -40.09375 C 10.765625 -40.09375 3.640625 -36.390625 3.640625 -28.703125 C 3.640625 -22.15625 6.4375 -18.34375 15.71875 -15.03125 C 22.71875 -12.75 28.359375 -11.28125 28.359375 -5.75 Z M 28.359375 -5.75 "/></g></g></g><g fill="#ffffff" fill-opacity="1"><g transform="translate(108.959005, 41.951132)"><g><path d="M 9.515625 0.90625 C 12.875 0.90625 15.546875 -1.828125 15.546875 -5.125 C 15.546875 -8.484375 12.875 -11.15625 9.515625 -11.15625 C 6.15625 -11.15625 3.421875 -8.484375 3.421875 -5.125 C 3.421875 -1.828125 6.15625 0.90625 9.515625 0.90625 Z M 9.515625 0.90625 "/></g></g></g><g fill="#ffffff" fill-opacity="1"><g transform="translate(127.921457, 41.951132)"><g/></g></g><g fill="#ffffff" fill-opacity="1"><g transform="translate(141.588093, 41.951132)"><g><path d="M 39.53125 -18.90625 C 36.796875 -9.796875 29.5625 -0.40625 20.5625 -0.40625 L 20.453125 -0.40625 L 20.453125 -32.296875 C 20.453125 -37.640625 21.75 -38.78125 25.6875 -38.78125 L 26.59375 -38.78125 L 26.59375 -39.1875 L 1.828125 -39.1875 L 1.828125 -38.78125 L 2.734375 -38.78125 C 6.65625 -38.78125 7.96875 -37.640625 7.96875 -32.296875 L 7.96875 -6.890625 C 7.96875 -1.53125 6.65625 -0.40625 2.734375 -0.40625 L 1.828125 -0.40625 L 1.828125 0 L 39.46875 0 L 39.875 -18.90625 Z M 39.53125 -18.90625 "/></g></g></g><g fill="#ffffff" fill-opacity="1"><g transform="translate(183.214394, 41.951132)"><g><path d="M 25.6875 -38.78125 L 26.59375 -38.78125 L 26.59375 -39.1875 L 1.828125 -39.1875 L 1.828125 -38.78125 L 2.734375 -38.78125 C 6.65625 -38.78125 7.96875 -37.640625 7.96875 -32.296875 L 7.96875 -6.890625 C 7.96875 -1.53125 6.65625 -0.40625 2.734375 -0.40625 L 1.828125 -0.40625 L 1.828125 0 L 26.59375 0 L 26.59375 -0.40625 L 25.6875 -0.40625 C 21.75 -0.40625 20.453125 -1.53125 20.453125 -6.890625 L 20.453125 -32.296875 C 20.453125 -37.640625 21.75 -38.78125 25.6875 -38.78125 Z M 25.6875 -38.78125 "/></g></g></g><g fill="#ffffff" fill-opacity="1"><g transform="translate(211.629614, 41.951132)"><g><path d="M 61.84375 -38.78125 L 62.765625 -38.78125 L 62.765625 -39.1875 L 43.90625 -39.1875 L 32.96875 -10.03125 L 20.84375 -39.1875 L 1.875 -39.1875 L 1.875 -38.78125 L 2.796875 -38.78125 C 6.328125 -38.78125 7.75 -37.875 7.96875 -33.828125 L 8.03125 -16.859375 C 8.03125 -10.828125 4.953125 -0.40625 0.90625 -0.40625 L 0 -0.40625 L 0 0 L 18.515625 0 L 18.515625 -0.40625 L 17.59375 -0.40625 C 12.1875 -0.40625 8.546875 -10.828125 8.546875 -16.859375 L 8.546875 -37.25 L 22.609375 -2.90625 L 30.984375 -2.90625 L 44.140625 -38.109375 L 44.140625 -6.890625 C 44.140625 -1.53125 42.828125 -0.40625 38.90625 -0.40625 L 37.984375 -0.40625 L 37.984375 0 L 62.765625 0 L 62.765625 -0.40625 L 61.84375 -0.40625 C 57.921875 -0.40625 56.609375 -1.53125 56.609375 -6.890625 L 56.609375 -32.296875 C 56.609375 -37.640625 57.921875 -38.78125 61.84375 -38.78125 Z M 61.84375 -38.78125 "/></g></g></g><g fill="#ffffff" fill-opacity="1"><g transform="translate(276.204466, 41.951132)"><g><path d="M 25.171875 0.90625 C 11.734375 0.90625 3.125 -4.890625 3.125 -19.765625 C 3.125 -33.71875 11.734375 -40.09375 25.171875 -40.09375 C 38.609375 -40.09375 47.21875 -33.71875 47.21875 -19.765625 C 47.21875 -4.890625 38.609375 0.90625 25.171875 0.90625 Z M 25.171875 -39.578125 C 17.546875 -39.578125 16.125 -33.484375 16.125 -19.59375 C 16.125 -4.78125 17.546875 0.40625 25.171875 0.40625 C 32.8125 0.40625 34.234375 -4.78125 34.234375 -19.59375 C 34.234375 -33.484375 32.8125 -39.578125 25.171875 -39.578125 Z M 25.171875 -39.578125 "/></g></g></g><g fill="#ffffff" fill-opacity="1"><g transform="translate(326.54325, 41.951132)"><g><path d="M 30.234375 -39.1875 L 30.234375 -38.78125 L 31.15625 -38.78125 C 36.84375 -38.78125 39.75 -26.828125 39.75 -21.1875 L 39.75 -5.984375 L 21.53125 -39.1875 L 1.59375 -39.1875 L 1.59375 -38.78125 L 2.5 -38.78125 C 6.09375 -38.78125 7.96875 -37.8125 8.265625 -33.609375 L 8.3125 -18 C 8.3125 -12.359375 5.984375 -0.40625 1.078125 -0.40625 L 0.171875 -0.40625 L 0.171875 0 L 18.796875 0 L 18.796875 -0.40625 L 17.890625 -0.40625 C 12.1875 -0.40625 8.71875 -12.359375 8.71875 -18 L 8.71875 -37.59375 L 28.484375 0 L 40.15625 0 L 40.15625 -21.1875 C 40.15625 -26.828125 42.546875 -38.78125 47.4375 -38.78125 L 48.359375 -38.78125 L 48.359375 -39.1875 Z M 30.234375 -39.1875 "/></g></g></g></svg>